<?xml version="1.0" encoding="UTF-8"?>
<svg xmlns="http://www.w3.org/2000/svg" xmlns:xlink="http://www.w3.org/1999/xlink" width="180px" height="150px" viewBox="0 0 180 150" version="1.1">
<g id="surface1">
<path style=" stroke:none;fill-rule:nonzero;fill:rgb(26.666667%,46.666667%,44.313725%);fill-opacity:1;" d="M 173.394531 75.066406 L 173.394531 67.324219 C 173.394531 47.246094 173.375 27.171875 173.335938 7.09375 C 173.335938 5.175781 173.210938 5.066406 171.621094 5.074219 L 108.621094 5.074219 L 55.21875 5.101562 C 53.605469 5.101562 53.488281 5.246094 53.480469 7.113281 L 53.480469 18.402344 C 53.480469 25.601562 53.492188 32.816406 53.515625 40.058594 C 53.5 40.660156 53.710938 41.25 54.117188 41.699219 C 55.617188 42.726562 57.078125 41.648438 57.078125 39.625 L 57.078125 11.140625 C 57.078125 9.167969 57.078125 9.167969 58.722656 9.167969 L 167.957031 9.203125 C 169.585938 9.203125 169.59375 9.203125 169.59375 11.074219 L 169.59375 138.804688 C 169.59375 140.5625 169.550781 140.601562 167.984375 140.601562 L 153.5625 140.601562 L 58.960938 140.644531 C 57.066406 140.644531 57.066406 140.644531 57.066406 138.410156 L 57.066406 110.289062 C 57.066406 108.113281 56.828125 107.796875 55.171875 107.796875 C 53.640625 107.796875 53.46875 108.023438 53.46875 110.160156 L 53.46875 142.449219 C 53.46875 144.765625 53.46875 144.765625 55.476562 144.765625 L 156.15625 144.808594 C 161.402344 144.808594 166.65625 144.808594 171.902344 144.808594 C 172.855469 144.808594 173.339844 144.574219 173.324219 143.277344 C 173.273438 140.484375 173.394531 137.6875 173.402344 134.882812 C 173.402344 114.960938 173.398438 95.023438 173.394531 75.066406 Z M 173.394531 75.066406 "/>
<path style=" stroke:none;fill-rule:nonzero;fill:rgb(26.666667%,46.666667%,44.313725%);fill-opacity:1;" d="M 107.871094 65.410156 L 107.871094 83 C 107.871094 84.65625 107.972656 84.761719 109.417969 84.796875 L 113.242188 84.796875 C 114.839844 84.796875 114.890625 84.746094 114.890625 82.890625 C 114.890625 78.695312 114.921875 74.496094 114.890625 70.296875 C 114.890625 69.296875 115.136719 68.949219 116.054688 68.96875 C 119.582031 69.039062 123.109375 69.003906 126.632812 69.003906 C 128.34375 69.003906 128.34375 69.003906 128.34375 70.945312 C 128.34375 75.011719 128.378906 79.082031 128.34375 83.148438 C 128.34375 84.421875 128.730469 84.875 129.789062 84.824219 C 130.945312 84.757812 132.113281 84.824219 133.273438 84.824219 C 135.59375 84.773438 135.582031 85.328125 135.59375 82.117188 C 135.617188 72.453125 135.617188 62.78125 135.59375 53.113281 C 135.59375 51.3125 135.554688 49.515625 135.59375 47.714844 C 135.59375 46.582031 135.144531 46.136719 134.242188 46.136719 C 132.78125 46.136719 131.316406 46.097656 129.859375 46.136719 C 128.503906 46.1875 128.355469 46.402344 128.355469 48.050781 C 128.355469 52.117188 128.320312 56.1875 128.355469 60.253906 C 128.355469 61.363281 128.152344 61.800781 127.121094 61.785156 C 123.441406 61.722656 119.765625 61.734375 116.089844 61.785156 C 115.15625 61.785156 114.855469 61.453125 114.890625 60.363281 C 114.933594 56.164062 114.890625 51.96875 114.929688 47.769531 C 114.929688 46.492188 114.519531 46.058594 113.476562 46.101562 C 112.085938 46.164062 110.699219 46.136719 109.308594 46.101562 C 108.296875 46.101562 107.851562 46.539062 107.859375 47.828125 C 107.898438 53.6875 107.871094 59.550781 107.871094 65.410156 Z M 107.871094 65.410156 "/>
<path style=" stroke:none;fill-rule:nonzero;fill:rgb(26.666667%,46.666667%,44.313725%);fill-opacity:1;" d="M 44.300781 65.363281 C 44.300781 71.222656 44.300781 77.082031 44.300781 82.953125 C 44.300781 84.75 44.402344 84.792969 45.917969 84.792969 L 54.835938 84.792969 C 59.109375 84.792969 63.382812 84.792969 67.65625 84.792969 C 68.640625 84.792969 69.125 84.460938 69.058594 83.214844 C 68.992188 81.96875 69.058594 80.851562 69.058594 79.671875 C 69.058594 77.871094 68.976562 77.78125 67.378906 77.78125 C 62.546875 77.78125 57.707031 77.742188 52.878906 77.8125 C 51.679688 77.8125 51.371094 77.367188 51.429688 76.074219 C 51.511719 74.417969 51.429688 72.75 51.429688 71.085938 C 51.429688 68.984375 51.429688 68.984375 53.230469 68.984375 L 65.035156 68.984375 C 66.414062 68.984375 66.773438 68.546875 66.785156 66.957031 L 66.785156 63.960938 C 66.785156 62.058594 66.578125 61.824219 64.988281 61.824219 C 60.902344 61.824219 56.816406 61.824219 52.730469 61.824219 C 51.777344 61.824219 51.382812 61.5625 51.4375 60.355469 C 51.511719 58.566406 51.511719 56.765625 51.4375 54.960938 C 51.371094 53.644531 51.734375 53.238281 52.886719 53.257812 C 57.835938 53.328125 62.789062 53.257812 67.734375 53.296875 C 68.683594 53.296875 69.121094 52.972656 69.082031 51.8125 C 69.035156 50.414062 69.046875 49.011719 69.082031 47.613281 C 69.082031 46.664062 68.773438 46.257812 67.960938 46.246094 C 66.019531 46.246094 64.078125 46.125 62.128906 46.132812 C 56.84375 46.132812 51.550781 46.226562 46.277344 46.226562 C 44.359375 46.226562 44.328125 46.179688 44.328125 48.429688 C 44.308594 54.074219 44.300781 59.71875 44.300781 65.363281 Z M 44.300781 65.363281 "/>
<path style=" stroke:none;fill-rule:nonzero;fill:rgb(26.666667%,46.666667%,44.313725%);fill-opacity:1;" d="M 74.113281 65.476562 L 73.972656 65.476562 C 73.972656 67.179688 73.972656 68.890625 73.972656 70.59375 C 73.957031 72.84375 74.382812 75.074219 75.222656 77.160156 C 76.402344 80.320312 78.8125 82.867188 81.90625 84.222656 C 84.417969 85.3125 87.007812 85.375 89.632812 85.34375 C 92.578125 85.382812 95.453125 84.429688 97.796875 82.644531 C 100.871094 80.28125 102.292969 76.835938 102.328125 72.570312 C 102.328125 71.523438 101.945312 70.980469 100.957031 71.03125 C 99.605469 71.101562 98.257812 71.070312 96.90625 71.03125 C 95.863281 71.03125 95.3125 71.484375 95.230469 72.761719 C 95.171875 74.582031 94.148438 76.238281 92.546875 77.105469 C 91.6875 77.5625 90.726562 77.808594 89.75 77.820312 C 88.1875 77.820312 86.523438 77.960938 85.09375 77.378906 C 82.382812 76.265625 81.195312 73.507812 81.089844 70.316406 C 80.945312 66.195312 80.554688 62.035156 81.609375 57.953125 C 82.210938 55.625 83.363281 54.019531 85.386719 53.25 C 87.363281 52.492188 89.546875 52.472656 91.535156 53.191406 C 93.699219 53.945312 95.183594 55.949219 95.269531 58.238281 C 95.308594 59.203125 95.667969 59.738281 96.46875 59.785156 C 98.003906 59.875 99.539062 59.917969 101.074219 59.972656 C 101.914062 59.972656 102.273438 59.46875 102.359375 58.539062 C 102.574219 55.953125 101.929688 53.367188 100.523438 51.1875 C 98.851562 48.425781 96.078125 46.511719 92.902344 45.933594 C 89.078125 45.28125 85.148438 45.066406 81.425781 46.972656 C 77.226562 49.113281 74.769531 52.804688 74.179688 58.03125 C 73.886719 60.464844 74.113281 62.964844 74.113281 65.476562 Z M 74.113281 65.476562 "/>
<path style=" stroke:none;fill-rule:nonzero;fill:rgb(26.666667%,46.666667%,44.313725%);fill-opacity:1;" d="M 27.261719 46.257812 L 15.007812 46.257812 C 13.6875 46.257812 13.496094 46.496094 13.484375 47.996094 L 13.484375 51.277344 C 13.484375 53.078125 13.675781 53.269531 15.15625 53.273438 L 22.011719 53.273438 C 23.707031 53.273438 23.707031 53.273438 23.707031 55.296875 L 23.707031 82.84375 C 23.707031 84.644531 23.792969 84.75 25.367188 84.761719 L 28.964844 84.761719 C 30.832031 84.761719 30.835938 84.761719 30.835938 82.574219 C 30.835938 73.261719 30.835938 63.949219 30.835938 54.636719 C 30.835938 53.585938 31.105469 53.25 31.988281 53.269531 C 34.535156 53.316406 37.085938 53.269531 39.640625 53.269531 C 40.652344 53.269531 41.085938 52.769531 41.085938 51.636719 C 41.085938 50.503906 41.085938 49.363281 41.085938 48.226562 C 41.085938 46.472656 40.894531 46.234375 39.40625 46.234375 C 35.359375 46.242188 31.3125 46.25 27.261719 46.257812 Z M 27.261719 46.257812 "/>
<path style=" stroke:none;fill-rule:nonzero;fill:rgb(26.666667%,46.666667%,44.313725%);fill-opacity:1;" d="M 10.148438 70.160156 C 10.148438 65.832031 10.148438 61.496094 10.148438 57.171875 C 10.148438 55.972656 9.742188 55.523438 8.757812 55.554688 C 7.523438 55.589844 6.28125 55.554688 5.046875 55.554688 C 3.46875 55.554688 3.335938 55.707031 3.335938 57.597656 C 3.335938 65.46875 3.335938 73.34375 3.335938 81.222656 C 3.335938 81.878906 3.335938 82.53125 3.335938 83.191406 C 3.335938 84.230469 3.726562 84.804688 4.722656 84.769531 C 6.027344 84.703125 7.34375 84.769531 8.65625 84.769531 C 9.96875 84.769531 10.128906 84.613281 10.136719 83.035156 C 10.160156 78.730469 10.148438 74.449219 10.148438 70.160156 Z M 10.148438 70.160156 "/>
<path style=" stroke:none;fill-rule:nonzero;fill:rgb(26.666667%,46.666667%,44.313725%);fill-opacity:1;" d="M 6.777344 52.171875 C 7.527344 52.171875 8.273438 52.171875 9.027344 52.171875 C 9.78125 52.171875 10.191406 51.734375 10.15625 50.78125 C 10.125 49.652344 10.15625 48.519531 10.15625 47.386719 C 10.15625 46.253906 9.703125 45.898438 8.839844 45.898438 C 7.640625 45.898438 6.441406 45.898438 5.242188 45.898438 C 3.550781 45.898438 3.320312 46.1875 3.332031 48.199219 C 3.367188 52.507812 2.945312 52.199219 6.777344 52.171875 Z M 6.777344 52.171875 "/>
<path style=" stroke:none;fill-rule:nonzero;fill:rgb(26.666667%,46.666667%,44.313725%);fill-opacity:1;" d="M 13.199219 101.710938 L 12 101.710938 L 12 91.472656 L 8.738281 101.710938 L 7.847656 101.710938 L 4.546875 91.472656 L 4.546875 101.710938 L 3.5 101.710938 L 3.5 89.984375 L 5.363281 89.984375 L 8.398438 99.363281 L 11.394531 89.984375 L 13.230469 89.984375 Z M 13.199219 101.710938 "/>
<path style=" stroke:none;fill-rule:nonzero;fill:rgb(26.666667%,46.666667%,44.313725%);fill-opacity:1;" d="M 21.421875 101.710938 L 20.28125 101.710938 C 20.242188 101.4375 20.191406 100.917969 20.152344 100.148438 C 19.773438 101.257812 18.714844 101.988281 17.542969 101.949219 C 16.820312 101.996094 16.113281 101.710938 15.625 101.175781 C 14.625 99.976562 14.753906 98.203125 15.910156 97.15625 C 16.546875 96.59375 17.632812 96.304688 19.167969 96.304688 C 19.371094 96.304688 19.703125 96.304688 20.152344 96.34375 C 20.167969 95.84375 20.125 95.34375 20.011719 94.855469 C 19.914062 94.542969 19.699219 94.277344 19.414062 94.117188 C 19.058594 93.921875 18.65625 93.828125 18.25 93.847656 C 17.050781 93.847656 16.398438 94.363281 16.207031 95.40625 L 15.136719 95.191406 C 15.394531 93.59375 16.492188 92.792969 18.417969 92.792969 C 19.226562 92.707031 20.03125 93 20.601562 93.582031 C 21.03125 94.121094 21.25 95.035156 21.25 96.335938 L 21.25 100.023438 C 21.25 100.589844 21.308594 101.15625 21.421875 101.710938 Z M 20.152344 97.375 C 19.675781 97.335938 19.324219 97.324219 19.078125 97.324219 C 18.332031 97.28125 17.589844 97.464844 16.949219 97.847656 C 16.445312 98.191406 16.160156 98.773438 16.191406 99.382812 C 16.183594 99.785156 16.328125 100.171875 16.601562 100.46875 C 16.917969 100.785156 17.355469 100.945312 17.800781 100.910156 C 18.484375 100.917969 19.125 100.585938 19.515625 100.023438 C 19.96875 99.425781 20.207031 98.691406 20.191406 97.941406 C 20.175781 97.78125 20.164062 97.59375 20.152344 97.375 Z M 20.152344 97.375 "/>
<path style=" stroke:none;fill-rule:nonzero;fill:rgb(26.666667%,46.666667%,44.313725%);fill-opacity:1;" d="M 29.722656 101.710938 L 28.523438 101.710938 L 26.351562 96.871094 L 24.738281 99.027344 L 24.738281 101.710938 L 23.582031 101.710938 L 23.582031 89.984375 L 24.738281 89.984375 L 24.738281 97.503906 L 28.191406 93.039062 L 29.433594 93.039062 L 27.105469 96.085938 Z M 29.722656 101.710938 "/>
<path style=" stroke:none;fill-rule:nonzero;fill:rgb(26.666667%,46.666667%,44.313725%);fill-opacity:1;" d="M 32.324219 89.984375 L 32.324219 91.492188 L 31.082031 91.492188 L 31.082031 89.984375 Z M 32.289062 93.039062 L 32.289062 101.710938 L 31.132812 101.710938 L 31.132812 93.039062 Z M 32.289062 93.039062 "/>
<path style=" stroke:none;fill-rule:nonzero;fill:rgb(26.666667%,46.666667%,44.313725%);fill-opacity:1;" d="M 40.449219 101.710938 L 39.371094 101.710938 L 39.371094 96.136719 C 39.429688 95.539062 39.269531 94.9375 38.921875 94.445312 C 38.648438 94.128906 38.246094 93.949219 37.828125 93.957031 C 37.226562 93.964844 36.671875 94.277344 36.347656 94.78125 C 35.921875 95.421875 35.710938 96.183594 35.75 96.953125 L 35.75 101.710938 L 34.589844 101.710938 L 34.589844 93.039062 L 35.671875 93.039062 L 35.671875 94.632812 C 36.269531 93.433594 37.054688 92.796875 38.015625 92.796875 C 38.53125 92.785156 39.039062 92.964844 39.429688 93.300781 C 39.796875 93.597656 40.070312 93.988281 40.226562 94.429688 C 40.40625 95.171875 40.480469 95.933594 40.445312 96.695312 Z M 40.449219 101.710938 "/>
<path style=" stroke:none;fill-rule:nonzero;fill:rgb(26.666667%,46.666667%,44.313725%);fill-opacity:1;" d="M 48.839844 91.683594 L 48.839844 92.757812 C 48.46875 92.71875 48.097656 92.792969 47.773438 92.964844 C 47.5625 93.171875 47.4375 93.445312 47.417969 93.738281 C 47.878906 94.34375 48.128906 95.078125 48.132812 95.839844 C 48.148438 96.589844 47.867188 97.320312 47.351562 97.871094 C 46.816406 98.449219 46.050781 98.761719 45.265625 98.722656 C 45.09375 98.726562 44.925781 98.707031 44.761719 98.667969 C 44.59375 98.625 44.421875 98.597656 44.25 98.578125 C 44.070312 98.597656 43.902344 98.679688 43.773438 98.808594 C 43.585938 98.949219 43.480469 99.171875 43.488281 99.40625 C 43.457031 99.695312 43.625 99.96875 43.898438 100.070312 C 44.523438 100.222656 45.164062 100.289062 45.804688 100.269531 C 46.4375 100.273438 47.066406 100.339844 47.683594 100.472656 C 48.09375 100.585938 48.457031 100.832031 48.714844 101.175781 C 48.996094 101.5625 49.144531 102.03125 49.132812 102.511719 C 49.132812 104.167969 47.886719 104.996094 45.390625 104.996094 C 44.488281 105.074219 43.582031 104.863281 42.804688 104.394531 C 42.277344 104.011719 41.972656 103.390625 41.992188 102.734375 C 41.941406 101.96875 42.402344 101.257812 43.125 100.996094 C 42.652344 100.667969 42.378906 100.121094 42.398438 99.542969 C 42.398438 98.871094 42.804688 98.265625 43.425781 98.007812 C 42.789062 97.414062 42.441406 96.578125 42.464844 95.710938 C 42.433594 94.925781 42.730469 94.160156 43.285156 93.601562 C 43.816406 93.0625 44.542969 92.765625 45.296875 92.78125 C 45.824219 92.773438 46.347656 92.898438 46.816406 93.144531 C 46.832031 92.695312 47.019531 92.269531 47.332031 91.945312 C 47.6875 91.707031 48.109375 91.59375 48.535156 91.621094 Z M 43.921875 101.34375 C 43.433594 101.539062 43.109375 102.015625 43.113281 102.542969 C 43.113281 102.984375 43.375 103.386719 43.777344 103.566406 C 44.304688 103.828125 44.886719 103.953125 45.476562 103.933594 C 46.074219 103.9375 46.667969 103.832031 47.226562 103.617188 C 47.695312 103.488281 48.023438 103.0625 48.023438 102.574219 C 48.03125 102.328125 47.949219 102.089844 47.789062 101.90625 C 47.617188 101.730469 47.394531 101.613281 47.148438 101.582031 C 46.675781 101.519531 46.199219 101.484375 45.722656 101.480469 C 45.121094 101.464844 44.519531 101.417969 43.921875 101.34375 Z M 45.300781 97.671875 C 45.761719 97.6875 46.203125 97.496094 46.5 97.144531 C 46.820312 96.765625 46.988281 96.277344 46.96875 95.777344 C 46.988281 95.265625 46.816406 94.761719 46.480469 94.371094 C 46.195312 94.023438 45.769531 93.824219 45.320312 93.828125 C 44.878906 93.828125 44.457031 94.015625 44.15625 94.339844 C 43.792969 94.734375 43.609375 95.257812 43.644531 95.789062 C 43.625 96.285156 43.785156 96.769531 44.101562 97.152344 C 44.398438 97.503906 44.839844 97.703125 45.300781 97.691406 Z M 45.300781 97.671875 "/>
<path style=" stroke:none;fill-rule:nonzero;fill:rgb(26.666667%,46.666667%,44.313725%);fill-opacity:1;" d="M 57.304688 100.792969 L 57.304688 101.859375 C 56.957031 101.914062 56.605469 101.945312 56.25 101.949219 C 54.8125 101.949219 54.09375 101.074219 54.09375 99.324219 L 54.09375 94.09375 L 52.773438 94.09375 L 52.773438 93.039062 L 54.09375 93.039062 L 54.144531 90.855469 L 55.21875 90.734375 L 55.21875 93.039062 L 56.878906 93.039062 L 56.878906 94.09375 L 55.21875 94.09375 L 55.21875 99.542969 C 55.21875 100.4375 55.617188 100.886719 56.417969 100.886719 C 56.71875 100.882812 57.015625 100.851562 57.304688 100.792969 Z M 57.304688 100.792969 "/>
<path style=" stroke:none;fill-rule:nonzero;fill:rgb(26.666667%,46.666667%,44.313725%);fill-opacity:1;" d="M 64.40625 101.710938 L 63.25 101.710938 L 63.25 96.445312 C 63.261719 95.976562 63.226562 95.511719 63.148438 95.054688 C 63.082031 94.742188 62.917969 94.464844 62.679688 94.253906 C 62.449219 94.035156 62.140625 93.914062 61.820312 93.914062 C 61.210938 93.925781 60.648438 94.246094 60.328125 94.765625 C 59.898438 95.441406 59.691406 96.238281 59.730469 97.039062 L 59.730469 101.710938 L 58.578125 101.710938 L 58.578125 89.984375 L 59.730469 89.984375 L 59.730469 94.632812 C 60.257812 93.410156 61.007812 92.796875 61.984375 92.796875 C 62.390625 92.789062 62.792969 92.894531 63.148438 93.097656 C 63.476562 93.285156 63.75 93.558594 63.933594 93.890625 C 64.105469 94.191406 64.230469 94.515625 64.304688 94.855469 C 64.386719 95.378906 64.421875 95.914062 64.40625 96.445312 Z M 64.40625 101.710938 "/>
<path style=" stroke:none;fill-rule:nonzero;fill:rgb(26.666667%,46.666667%,44.313725%);fill-opacity:1;" d="M 67.910156 89.984375 L 67.910156 91.492188 L 66.667969 91.492188 L 66.667969 89.984375 Z M 67.871094 93.039062 L 67.871094 101.710938 L 66.714844 101.710938 L 66.714844 93.039062 Z M 67.871094 93.039062 "/>
<path style=" stroke:none;fill-rule:nonzero;fill:rgb(26.666667%,46.666667%,44.313725%);fill-opacity:1;" d="M 76.035156 101.710938 L 74.953125 101.710938 L 74.953125 96.136719 C 75.015625 95.539062 74.855469 94.9375 74.503906 94.445312 C 74.230469 94.128906 73.832031 93.949219 73.414062 93.957031 C 72.8125 93.964844 72.257812 94.277344 71.933594 94.78125 C 71.503906 95.421875 71.292969 96.183594 71.332031 96.953125 L 71.332031 101.710938 L 70.175781 101.710938 L 70.175781 93.039062 L 71.25 93.039062 L 71.25 94.632812 C 71.847656 93.433594 72.632812 92.796875 73.597656 92.796875 C 74.117188 92.785156 74.621094 92.964844 75.015625 93.300781 C 75.378906 93.597656 75.65625 93.988281 75.816406 94.429688 C 75.996094 95.171875 76.070312 95.933594 76.035156 96.695312 Z M 76.035156 101.710938 "/>
<path style=" stroke:none;fill-rule:nonzero;fill:rgb(26.666667%,46.666667%,44.313725%);fill-opacity:1;" d="M 84.417969 91.683594 L 84.417969 92.757812 C 84.050781 92.71875 83.679688 92.792969 83.355469 92.964844 C 83.144531 93.171875 83.015625 93.445312 82.996094 93.738281 C 83.460938 94.339844 83.710938 95.078125 83.710938 95.839844 C 83.722656 96.589844 83.445312 97.320312 82.9375 97.871094 C 82.398438 98.449219 81.636719 98.761719 80.847656 98.722656 C 80.675781 98.726562 80.507812 98.707031 80.339844 98.667969 C 80.171875 98.625 80 98.59375 79.828125 98.578125 C 79.648438 98.597656 79.484375 98.679688 79.355469 98.808594 C 79.171875 98.949219 79.066406 99.171875 79.074219 99.40625 C 79.042969 99.695312 79.210938 99.96875 79.480469 100.070312 C 80.105469 100.222656 80.742188 100.289062 81.382812 100.269531 C 82.015625 100.273438 82.648438 100.339844 83.265625 100.472656 C 83.675781 100.585938 84.039062 100.832031 84.292969 101.175781 C 84.578125 101.5625 84.726562 102.03125 84.710938 102.511719 C 84.710938 104.167969 83.464844 104.996094 80.976562 104.996094 C 80.070312 105.074219 79.164062 104.863281 78.382812 104.394531 C 77.859375 104.007812 77.554688 103.386719 77.574219 102.734375 C 77.527344 101.96875 77.988281 101.257812 78.707031 100.996094 C 78.246094 100.660156 77.980469 100.113281 78.007812 99.542969 C 78.007812 98.871094 78.414062 98.265625 79.039062 98.007812 C 78.402344 97.417969 78.050781 96.582031 78.074219 95.710938 C 78.046875 94.925781 78.34375 94.160156 78.898438 93.601562 C 79.429688 93.0625 80.15625 92.765625 80.910156 92.78125 C 81.441406 92.773438 81.964844 92.898438 82.433594 93.144531 C 82.445312 92.695312 82.628906 92.269531 82.941406 91.945312 C 83.296875 91.710938 83.714844 91.59375 84.140625 91.621094 Z M 79.5 101.34375 C 79.011719 101.539062 78.6875 102.015625 78.691406 102.542969 C 78.691406 102.984375 78.953125 103.386719 79.355469 103.566406 C 79.882812 103.828125 80.464844 103.953125 81.054688 103.933594 C 81.652344 103.941406 82.246094 103.832031 82.804688 103.617188 C 83.28125 103.488281 83.609375 103.054688 83.601562 102.5625 C 83.609375 102.316406 83.527344 102.078125 83.367188 101.894531 C 83.195312 101.71875 82.964844 101.601562 82.71875 101.570312 C 82.25 101.507812 81.773438 101.472656 81.300781 101.46875 C 80.488281 101.457031 79.890625 101.414062 79.5 101.34375 Z M 80.886719 97.671875 C 81.34375 97.6875 81.785156 97.496094 82.085938 97.144531 C 82.402344 96.761719 82.570312 96.277344 82.546875 95.777344 C 82.570312 95.265625 82.398438 94.761719 82.066406 94.371094 C 81.769531 94.015625 81.328125 93.816406 80.867188 93.828125 C 80.425781 93.832031 80.007812 94.015625 79.710938 94.339844 C 79.050781 95.152344 79.027344 96.3125 79.65625 97.152344 C 79.960938 97.511719 80.414062 97.710938 80.886719 97.691406 Z M 80.886719 97.671875 "/>
<path style=" stroke:none;fill-rule:nonzero;fill:rgb(26.666667%,46.666667%,44.313725%);fill-opacity:1;" d="M 84.746094 99.460938 L 85.855469 99.195312 C 86.097656 100.289062 86.875 100.832031 88.175781 100.832031 C 88.609375 100.84375 89.027344 100.710938 89.375 100.457031 C 89.710938 100.207031 89.898438 99.808594 89.878906 99.394531 C 89.878906 98.714844 89.453125 98.277344 88.601562 98.097656 L 87.0625 97.746094 C 86.503906 97.636719 85.992188 97.355469 85.597656 96.941406 C 85.21875 96.5 85.023438 95.933594 85.054688 95.351562 C 85.042969 94.671875 85.3125 94.019531 85.800781 93.546875 C 86.34375 93.042969 87.066406 92.777344 87.804688 92.816406 C 89.417969 92.816406 90.414062 93.546875 90.804688 95.023438 L 89.742188 95.285156 C 89.527344 94.4375 88.738281 93.867188 87.863281 93.929688 C 87.453125 93.914062 87.046875 94.03125 86.707031 94.265625 C 86.40625 94.492188 86.238281 94.847656 86.253906 95.21875 C 86.253906 95.855469 86.640625 96.265625 87.410156 96.421875 L 88.859375 96.726562 C 90.378906 97.042969 91.136719 97.898438 91.132812 99.296875 C 91.160156 100.035156 90.847656 100.746094 90.289062 101.230469 C 89.652344 101.742188 88.847656 102.003906 88.03125 101.960938 C 86.261719 101.949219 85.167969 101.117188 84.746094 99.460938 Z M 84.746094 99.460938 "/>
<path style=" stroke:none;fill-rule:nonzero;fill:rgb(26.666667%,46.666667%,44.313725%);fill-opacity:1;" d="M 101.421875 99.125 L 102.496094 99.382812 C 102.3125 100.101562 101.910156 100.746094 101.34375 101.222656 C 100.789062 101.703125 100.074219 101.960938 99.335938 101.949219 C 98.359375 101.96875 97.4375 101.5 96.871094 100.703125 C 95.605469 98.671875 95.617188 96.09375 96.90625 94.074219 C 97.46875 93.273438 98.386719 92.796875 99.367188 92.796875 C 100.300781 92.78125 101.179688 93.230469 101.710938 93.996094 C 102.3125 94.78125 102.605469 95.953125 102.621094 97.515625 L 97.226562 97.515625 C 97.226562 98.832031 97.460938 99.710938 97.933594 100.175781 C 98.320312 100.59375 98.859375 100.839844 99.425781 100.859375 C 100.371094 100.839844 101.035156 100.265625 101.421875 99.125 Z M 101.359375 96.492188 C 101.355469 96.050781 101.285156 95.609375 101.148438 95.191406 C 101.023438 94.816406 100.800781 94.484375 100.5 94.226562 C 100.195312 93.960938 99.804688 93.820312 99.402344 93.828125 C 98.832031 93.828125 98.292969 94.09375 97.945312 94.550781 C 97.515625 95.105469 97.28125 95.789062 97.269531 96.492188 Z M 101.359375 96.492188 "/>
<path style=" stroke:none;fill-rule:nonzero;fill:rgb(26.666667%,46.666667%,44.313725%);fill-opacity:1;" d="M 110.171875 101.710938 L 109.035156 101.710938 C 108.992188 101.4375 108.945312 100.917969 108.902344 100.148438 C 108.523438 101.257812 107.464844 101.988281 106.292969 101.949219 C 105.570312 101.996094 104.863281 101.710938 104.375 101.175781 C 103.375 99.976562 103.503906 98.203125 104.660156 97.15625 C 105.296875 96.59375 106.382812 96.304688 107.910156 96.304688 C 108.121094 96.304688 108.449219 96.316406 108.902344 96.34375 C 108.917969 95.84375 108.875 95.34375 108.761719 94.855469 C 108.664062 94.542969 108.449219 94.277344 108.164062 94.117188 C 107.808594 93.921875 107.40625 93.828125 107 93.847656 C 105.800781 93.847656 105.148438 94.363281 104.957031 95.40625 L 103.886719 95.191406 C 104.148438 93.589844 105.242188 92.792969 107.167969 92.792969 C 107.980469 92.707031 108.78125 93 109.351562 93.582031 C 109.78125 94.117188 109.992188 95.035156 109.992188 96.335938 L 109.992188 100.023438 C 109.996094 100.589844 110.058594 101.15625 110.171875 101.710938 Z M 108.902344 97.375 C 108.425781 97.335938 108.074219 97.324219 107.828125 97.324219 C 107.082031 97.28125 106.339844 97.464844 105.699219 97.847656 C 105.195312 98.191406 104.90625 98.773438 104.9375 99.382812 C 104.929688 99.785156 105.078125 100.171875 105.351562 100.46875 C 105.667969 100.785156 106.105469 100.945312 106.550781 100.910156 C 107.234375 100.917969 107.875 100.585938 108.265625 100.023438 C 108.71875 99.425781 108.957031 98.691406 108.945312 97.941406 C 108.925781 97.78125 108.914062 97.59375 108.902344 97.375 Z M 108.902344 97.375 "/>
<path style=" stroke:none;fill-rule:nonzero;fill:rgb(26.666667%,46.666667%,44.313725%);fill-opacity:1;" d="M 111.328125 99.460938 L 112.433594 99.195312 C 112.675781 100.289062 113.453125 100.832031 114.761719 100.832031 C 115.191406 100.839844 115.613281 100.707031 115.960938 100.457031 C 116.289062 100.207031 116.476562 99.808594 116.457031 99.394531 C 116.457031 98.714844 116.03125 98.277344 115.1875 98.097656 L 113.613281 97.75 C 113.054688 97.640625 112.542969 97.359375 112.152344 96.949219 C 111.773438 96.507812 111.578125 95.9375 111.605469 95.359375 C 111.585938 94.671875 111.855469 94.007812 112.347656 93.53125 C 112.890625 93.023438 113.613281 92.761719 114.351562 92.796875 C 115.964844 92.796875 116.960938 93.53125 117.351562 95.003906 L 116.296875 95.269531 C 116.082031 94.421875 115.289062 93.847656 114.417969 93.914062 C 114.003906 93.898438 113.597656 94.015625 113.253906 94.25 C 112.957031 94.472656 112.789062 94.828125 112.804688 95.203125 C 112.804688 95.839844 113.1875 96.246094 113.960938 96.402344 L 115.40625 96.707031 C 116.925781 97.023438 117.6875 97.882812 117.6875 99.28125 C 117.714844 100.019531 117.402344 100.734375 116.835938 101.210938 C 116.203125 101.726562 115.402344 101.984375 114.585938 101.941406 C 112.832031 101.941406 111.746094 101.117188 111.328125 99.460938 Z M 111.328125 99.460938 "/>
<path style=" stroke:none;fill-rule:nonzero;fill:rgb(26.666667%,46.666667%,44.313725%);fill-opacity:1;" d="M 124.425781 93.039062 L 121.429688 102.722656 C 120.996094 104.117188 120.308594 104.816406 119.359375 104.820312 C 119.019531 104.8125 118.683594 104.753906 118.363281 104.640625 L 118.363281 103.585938 C 118.617188 103.65625 118.875 103.699219 119.136719 103.707031 C 119.484375 103.714844 119.816406 103.578125 120.0625 103.335938 C 120.4375 102.796875 120.691406 102.183594 120.804688 101.535156 L 118.230469 93.039062 L 119.402344 93.039062 L 121.417969 99.542969 L 123.449219 93.027344 Z M 124.425781 93.039062 "/>
<path style=" stroke:none;fill-rule:nonzero;fill:rgb(26.666667%,46.666667%,44.313725%);fill-opacity:1;" d="M 126.527344 99.789062 L 126.527344 101.710938 L 124.875 101.710938 L 124.875 99.789062 Z M 126.527344 99.789062 "/>
<path style=" stroke:none;fill-rule:nonzero;fill:rgb(26.666667%,46.666667%,44.313725%);fill-opacity:1;" d="M 130.292969 99.789062 L 130.292969 101.710938 L 128.640625 101.710938 L 128.640625 99.789062 Z M 130.292969 99.789062 "/>
<path style=" stroke:none;fill-rule:nonzero;fill:rgb(26.666667%,46.666667%,44.313725%);fill-opacity:1;" d="M 134.0625 99.789062 L 134.0625 101.710938 L 132.414062 101.710938 L 132.414062 99.789062 Z M 134.0625 99.789062 "/>
</g>
</svg>
